<?xml version="1.0" encoding="utf-8"?>
<!-- Generator: Adobe Illustrator 18.1.1, SVG Export Plug-In . SVG Version: 6.00 Build 0)  -->
<svg version="1.1" id="Calque_1" xmlns="http://www.w3.org/2000/svg" xmlns:xlink="http://www.w3.org/1999/xlink" x="0px" y="0px"
	 viewBox="0 0 283.46 283.46" enable-background="new 0 0 283.46 283.46" xml:space="preserve">
<path fill="#2688C9" d="M11.027,158.854V8.686h57.751c25.328,0,45.16,5.807,59.499,17.42c17.031,13.893,25.547,32.744,25.547,56.559
	c0,22.69-7.232,41.207-21.695,55.551c-14.464,14.348-33.085,21.519-55.865,21.519c-2.939,0-7.742-0.147-14.412-0.436v-43.789h7.321
	c26.655,0,39.984-10.948,39.984-32.844c0-20.569-12.799-30.853-38.395-30.853H55.693v107.043H11.027z"/>
<path fill="#2688C9" d="M131.465,269.255V119.087h57.751c25.328,0,45.16,5.807,59.499,17.42
	c17.031,13.893,25.547,32.744,25.547,56.559c0,22.69-7.232,41.207-21.695,55.551c-14.464,14.348-33.085,21.519-55.865,21.519
	c-2.939,0-7.742-0.147-14.412-0.436V225.91h7.321c26.655,0,39.984-10.948,39.984-32.844c0-20.569-12.799-30.853-38.395-30.853
	H176.13v107.043H131.465z"/>
</svg>
