<?xml version="1.0" encoding="utf-8"?>
<!-- Generator: Adobe Illustrator 18.1.1, SVG Export Plug-In . SVG Version: 6.00 Build 0)  -->
<svg version="1.1" id="Calque_1" xmlns="http://www.w3.org/2000/svg" xmlns:xlink="http://www.w3.org/1999/xlink" x="0px" y="0px"
	 viewBox="0 0 694.667 90" enable-background="new 0 0 694.667 90" xml:space="preserve">
<g>
	<path fill="#FFFFFF" d="M6.027,84.667V4.686h30.759c13.49,0,24.053,3.093,31.689,9.278c9.071,7.399,13.606,17.44,13.606,30.124
		c0,12.085-3.852,21.947-11.555,29.587c-7.704,7.642-17.621,11.461-29.754,11.461c-1.565,0-4.124-0.078-7.676-0.232V61.581h3.899
		c14.197,0,21.296-5.831,21.296-17.493c0-10.955-6.817-16.433-20.449-16.433h-8.027v57.012H6.027z"/>
	<path fill="#FFFFFF" d="M92.219,60.174V28.827c0-7.656,2.197-13.594,6.592-17.812s10.576-6.328,18.545-6.328h20.684v22.969h-15.176
		c-4.102,0-6.152,1.329-6.152,3.984c0,1.563,0.488,2.647,1.465,3.252c0.976,0.606,2.714,0.908,5.215,0.908h13.125v18.75h-15.527
		c-2.109,0-3.604,0.273-4.482,0.817c-0.879,0.545-1.318,1.464-1.318,2.757c0,1.464,0.449,2.426,1.348,2.885
		c0.898,0.459,2.734,0.689,5.508,0.689h15.996v22.969h-18.691c-8.789,0-15.508-2.1-20.156-6.299
		C94.542,74.169,92.219,68.104,92.219,60.174z"/>
	<path fill="#FFFFFF" d="M147.648,84.028V60.932c2.265,1.449,4.277,2.172,6.035,2.172c2.07,0,3.798-0.596,5.186-1.79
		c1.386-1.192,2.08-2.689,2.08-4.489c0-1.174-1.113-3.736-3.34-7.689c-3.555-6.259-5.332-12.52-5.332-18.78
		c0-7.54,2.685-14.035,8.057-19.486c5.371-5.45,11.787-8.176,19.248-8.176c3.281,0,6.504,0.547,9.668,1.641v22.793
		c-1.719-0.586-3.047-0.879-3.984-0.879c-1.797,0-3.34,0.666-4.629,1.995c-1.289,1.33-1.934,2.934-1.934,4.812
		c0,1.604,0.703,3.639,2.109,6.104l1.816,3.169c3.281,5.713,4.922,11.229,4.922,16.549c0,7.761-2.764,14.33-8.291,19.711
		c-5.528,5.381-12.275,8.07-20.244,8.07C155.187,86.659,151.398,85.782,147.648,84.028z"/>
	<path fill="#FFFFFF" d="M201.32,84.667V4.686h23.789v79.98H201.32z"/>
	<path fill="#FFFFFF" d="M236.242,44.178c0-11.875,3.765-21.757,11.294-29.648c7.529-7.89,17.065-11.836,28.608-11.836
		c3.945,0,8.32,0.801,13.125,2.402v23.789c-3.75-1.758-7.168-2.637-10.254-2.637c-5.586,0-10.147,1.75-13.682,5.248
		c-3.536,3.499-5.303,8.039-5.303,13.62c0,5.7,1.641,10.22,4.922,13.562s7.714,5.012,13.301,5.012c3.554,0,5.332-0.968,5.332-2.904
		c0-1.462-1.172-2.193-3.516-2.193h-5.684v-18.75h22.676c4.882,6.055,7.324,12.442,7.324,19.16c0,7.812-2.862,14.375-8.584,19.687
		c-5.723,5.312-12.764,7.969-21.123,7.969c-10.833,0-19.948-4.121-27.344-12.363C239.94,66.053,236.242,56.014,236.242,44.178z"/>
	<path fill="#FFFFFF" d="M313,84.667V32.753c0-9.101,2.725-16.386,8.174-21.855c5.449-5.468,12.705-8.203,21.768-8.203
		c9.023,0,15.927,2.657,20.712,7.969c4.785,5.313,7.178,12.949,7.178,22.91v51.094h-23.788V33.573c0-4.882-1.739-7.324-5.215-7.324
		c-3.36,0-5.039,2.442-5.039,7.324v51.094H313z"/>
	<path fill="#FFFFFF" d="M383.663,84.667V34.862c0-5.156,0.518-9.384,1.553-12.686c1.034-3.3,2.803-6.376,5.303-9.229
		c2.812-3.164,6.328-5.664,10.547-7.5c4.219-1.835,8.574-2.754,13.066-2.754c7.96,0,14.646,2.75,20.061,8.249
		c5.415,5.499,8.123,12.313,8.123,20.444c0,7.829-2.481,14.177-7.441,19.046c-4.532,4.479-11.367,6.718-20.508,6.718l-3.633-0.059
		V36.178c5.194,0,7.793-1.83,7.793-5.491c0-3.349-1.837-5.024-5.508-5.024c-3.712,0-5.566,2.298-5.566,6.894v52.11H383.663z"/>
	<path fill="#FFFFFF" d="M447.94,44.676c0-11.726,4.077-21.655,12.231-29.786c8.153-8.131,18.13-12.197,29.928-12.197
		c11.175,0,20.761,4.125,28.757,12.373s11.994,18.118,11.994,29.61c0,11.672-4.028,21.588-12.084,29.746
		c-8.057,8.158-17.847,12.236-29.371,12.236c-11.447,0-21.219-4.098-29.313-12.295C451.987,66.166,447.94,56.27,447.94,44.676z
		 M476.894,31.649c-3.443,3.6-5.164,7.942-5.164,13.028c0,5.087,1.731,9.43,5.193,13.029c3.463,3.6,7.62,5.398,12.473,5.398
		c4.93,0,9.105-1.79,12.53-5.369c3.424-3.58,5.136-7.934,5.136-13.059s-1.712-9.478-5.136-13.057
		c-3.425-3.58-7.601-5.371-12.53-5.371C484.505,26.249,480.337,28.049,476.894,31.649z"/>
	<path fill="#FFFFFF" d="M541.515,84.667V32.753c0-9.101,2.725-16.386,8.174-21.855c5.449-5.468,12.705-8.203,21.768-8.203
		c9.023,0,15.928,2.657,20.713,7.969c4.784,5.313,7.178,12.949,7.178,22.91v51.094h-23.789V33.573c0-4.882-1.738-7.324-5.215-7.324
		c-3.36,0-5.039,2.442-5.039,7.324v51.094H541.515z"/>
	<path fill="#FFFFFF" d="M613.819,84.667V4.686h30.759c13.489,0,24.053,3.093,31.689,9.278c9.071,7.399,13.606,17.44,13.606,30.124
		c0,12.085-3.852,21.947-11.555,29.587c-7.703,7.642-17.621,11.461-29.754,11.461c-1.565,0-4.123-0.078-7.676-0.232V61.581h3.899
		c14.197,0,21.296-5.831,21.296-17.493c0-10.955-6.817-16.433-20.449-16.433h-8.027v57.012H613.819z"/>
</g>
</svg>
