<?xml version="1.0" encoding="utf-8"?>
<!-- Generator: Adobe Illustrator 19.2.1, SVG Export Plug-In . SVG Version: 6.00 Build 0)  -->
<svg version="1.1" id="Calque_1" xmlns="http://www.w3.org/2000/svg" xmlns:xlink="http://www.w3.org/1999/xlink" x="0px" y="0px"
	 viewBox="0 0 342.4 283.5" style="enable-background:new 0 0 342.4 283.5;" xml:space="preserve">
<style type="text/css">
	.st0{fill:#AF1C21;}
	.st1{fill:#AE1C26;}
	.st2{fill:#A6A6A6;}
</style>
<g>
	<g>
		<g>
			<path class="st0" d="M5.9,243.7v5.7H14v2.1H5.9v7.7H3.7v-17.4h11.3v2H5.9z"/>
			<path class="st0" d="M27.6,259.1l-1.4-4.1h-7.6l-1.4,4.1H15l6.1-17.4h2.6l6.2,17.4H27.6z M22.3,243.9l-3.1,9h6.2L22.3,243.9z"/>
			<path class="st0" d="M43.8,255.8c-0.3,0.7-0.7,1.3-1.2,1.8c-0.5,0.5-1.2,1-2,1.3c-0.8,0.4-1.7,0.5-2.7,0.5
				c-0.9,0-1.7-0.2-2.6-0.5c-0.8-0.3-1.5-0.8-2.2-1.4c-0.5-0.5-0.9-1-1.1-1.5c-0.3-0.5-0.5-1.1-0.7-1.7c-0.2-0.6-0.3-1.2-0.3-1.9
				c0-0.7-0.1-1.3-0.1-2c0-0.7,0-1.4,0.1-2c0-0.7,0.2-1.3,0.3-1.9c0.2-0.6,0.4-1.2,0.7-1.7c0.3-0.5,0.7-1.1,1.1-1.5
				c0.6-0.6,1.3-1.1,2.2-1.4c0.8-0.3,1.7-0.5,2.6-0.5c1,0,1.8,0.2,2.6,0.5c0.8,0.3,1.5,0.8,2,1.3c0.5,0.5,0.9,1.1,1.2,1.8
				c0.3,0.7,0.5,1.4,0.5,2.2H42c0-0.5-0.1-0.9-0.3-1.3c-0.2-0.4-0.4-0.8-0.7-1.1c-0.3-0.4-0.8-0.7-1.3-0.9c-0.5-0.2-1.1-0.4-1.8-0.4
				c-0.6,0-1.2,0.1-1.7,0.3s-1,0.6-1.5,1c-0.4,0.4-0.6,0.8-0.8,1.3c-0.2,0.5-0.3,0.9-0.4,1.4c-0.1,0.5-0.2,1-0.2,1.5
				c0,0.5,0,1,0,1.5c0,0.5,0,0.9,0,1.4c0,0.5,0.1,1,0.2,1.5c0.1,0.5,0.2,1,0.4,1.5c0.2,0.5,0.5,0.9,0.8,1.2c0.4,0.4,0.9,0.8,1.5,1
				c0.6,0.2,1.1,0.3,1.7,0.3c0.7,0,1.3-0.1,1.8-0.4c0.6-0.3,1-0.6,1.3-0.9c0.3-0.3,0.5-0.7,0.7-1.1c0.2-0.4,0.3-0.9,0.3-1.4h2.3
				C44.2,254.4,44.1,255.1,43.8,255.8z"/>
			<path class="st0" d="M59.5,255.6c-0.3,0.8-0.7,1.5-1.3,2.1c-0.6,0.6-1.2,1-2,1.3c-0.8,0.3-1.7,0.4-2.6,0.4c-1,0-1.9-0.1-2.6-0.4
				c-0.8-0.3-1.4-0.7-2-1.3c-0.6-0.6-1-1.3-1.3-2.1c-0.3-0.8-0.4-1.8-0.4-2.9v-11h2.2v11.1c0,0.7,0.1,1.3,0.2,1.9
				c0.2,0.6,0.4,1.1,0.7,1.5c0.3,0.4,0.8,0.7,1.3,0.9c0.5,0.2,1.2,0.3,1.9,0.3c0.8,0,1.4-0.1,1.9-0.3c0.5-0.2,1-0.5,1.3-0.9
				c0.3-0.4,0.6-0.9,0.7-1.5c0.2-0.6,0.2-1.2,0.2-1.9v-11.1h2.2v11C59.9,253.8,59.8,254.8,59.5,255.6z"/>
			<path class="st0" d="M64.3,259.1v-17.4h2.2v15.4h8.4v2.1H64.3z"/>
			<path class="st0" d="M80.4,243.8v15.4h-2.2v-15.4H73v-2.1h12.6v2.1H80.4z"/>
			<path class="st0" d="M88.3,259.1v-17.4H100v2h-9.5v5.3h8.3v2.1h-8.3v6h9.5v2H88.3z M92.3,240.6l-0.7-1.2l4.2-3l1.1,1.7
				L92.3,240.6z"/>
			<path class="st0" d="M122.2,250.4c0,0.6,0,1.3-0.1,1.9c-0.1,0.6-0.2,1.3-0.3,1.9c-0.2,0.6-0.4,1.2-0.7,1.7
				c-0.3,0.5-0.7,1.1-1.2,1.5c-0.6,0.6-1.3,1-2.1,1.3c-0.8,0.3-1.6,0.4-2.5,0.4h-6.1v-17.4h6.1c0.9,0,1.7,0.1,2.5,0.4
				c0.8,0.3,1.5,0.7,2.1,1.3c0.5,0.5,0.9,1,1.2,1.5c0.3,0.5,0.5,1.1,0.7,1.7c0.2,0.6,0.3,1.2,0.3,1.8
				C122.2,249.2,122.2,249.8,122.2,250.4z M120,250.4c0-0.5,0-0.9,0-1.4c0-0.5-0.1-1-0.2-1.5c-0.1-0.5-0.3-0.9-0.5-1.4
				c-0.2-0.4-0.5-0.8-0.8-1.2c-0.4-0.4-0.9-0.7-1.4-0.9c-0.5-0.2-1.1-0.3-1.7-0.3h-3.9v13.4h3.9c0.6,0,1.1-0.1,1.7-0.3
				c0.5-0.2,1-0.5,1.4-0.9c0.3-0.3,0.6-0.7,0.8-1.2c0.2-0.4,0.3-0.9,0.5-1.4c0.1-0.5,0.2-1,0.2-1.5C120,251.4,120,250.9,120,250.4z"
				/>
			<path class="st0" d="M126,259.1v-17.4h11.6v2h-9.5v5.3h8.3v2.1h-8.3v6h9.5v2H126z"/>
			<path class="st0" d="M159.9,250.4c0,0.6,0,1.3-0.1,1.9c-0.1,0.6-0.2,1.3-0.3,1.9c-0.2,0.6-0.4,1.2-0.7,1.7
				c-0.3,0.5-0.7,1.1-1.2,1.5c-0.6,0.6-1.3,1-2.1,1.3c-0.8,0.3-1.6,0.4-2.5,0.4H147v-17.4h6.1c0.9,0,1.7,0.1,2.5,0.4
				c0.8,0.3,1.5,0.7,2.1,1.3c0.5,0.5,0.9,1,1.2,1.5c0.3,0.5,0.5,1.1,0.7,1.7c0.2,0.6,0.3,1.2,0.3,1.8
				C159.8,249.2,159.9,249.8,159.9,250.4z M157.6,250.4c0-0.5,0-0.9,0-1.4c0-0.5-0.1-1-0.2-1.5c-0.1-0.5-0.3-0.9-0.5-1.4
				c-0.2-0.4-0.5-0.8-0.8-1.2c-0.4-0.4-0.9-0.7-1.4-0.9c-0.5-0.2-1.1-0.3-1.7-0.3h-3.9v13.4h3.9c0.6,0,1.1-0.1,1.7-0.3
				c0.5-0.2,1-0.5,1.4-0.9c0.3-0.3,0.6-0.7,0.8-1.2c0.2-0.4,0.3-0.9,0.5-1.4c0.1-0.5,0.2-1,0.2-1.5
				C157.6,251.4,157.6,250.9,157.6,250.4z"/>
			<path class="st0" d="M173.9,259.1l-3.3-7.2h-4.8v7.2h-2.2v-17.4h6.8c1,0,1.9,0.1,2.6,0.4c0.7,0.3,1.3,0.6,1.8,1.1
				c0.4,0.4,0.8,1,1,1.5c0.2,0.6,0.4,1.2,0.4,2c0,0.8-0.1,1.4-0.3,2c-0.2,0.5-0.6,1-1,1.5c-0.3,0.3-0.6,0.5-0.9,0.7
				c-0.4,0.2-0.7,0.4-1.2,0.5l3.5,7.7H173.9z M174,246.8c0-1.1-0.3-1.9-1-2.4c-0.7-0.5-1.5-0.7-2.5-0.7h-4.6v6.1h4.6
				c0.5,0,1-0.1,1.4-0.2c0.4-0.1,0.8-0.3,1.1-0.5c0.3-0.2,0.6-0.6,0.7-0.9C173.9,247.8,174,247.3,174,246.8z"/>
			<path class="st0" d="M192.6,250.4c0,0.7,0,1.4-0.1,2c-0.1,0.7-0.2,1.3-0.3,1.9c-0.2,0.6-0.4,1.2-0.7,1.7c-0.3,0.5-0.7,1-1.2,1.5
				c-0.6,0.6-1.3,1.1-2.1,1.4c-0.8,0.3-1.7,0.5-2.5,0.5c-0.9,0-1.7-0.2-2.5-0.5c-0.8-0.3-1.5-0.8-2.1-1.4c-0.5-0.5-0.9-1-1.2-1.5
				c-0.3-0.5-0.5-1.1-0.7-1.7c-0.2-0.6-0.3-1.2-0.3-1.9c-0.1-0.7-0.1-1.3-0.1-2c0-0.7,0-1.4,0.1-2c0.1-0.7,0.2-1.3,0.3-1.9
				c0.2-0.6,0.4-1.2,0.7-1.7c0.3-0.5,0.7-1.1,1.2-1.5c0.6-0.6,1.3-1.1,2.1-1.4c0.8-0.3,1.7-0.5,2.5-0.5c0.9,0,1.7,0.2,2.5,0.5
				c0.8,0.3,1.5,0.8,2.1,1.4c0.5,0.5,0.9,1,1.2,1.5c0.3,0.5,0.5,1.1,0.7,1.7c0.2,0.6,0.3,1.2,0.3,1.9
				C192.6,249.1,192.6,249.7,192.6,250.4z M190.3,250.4c0-0.5,0-0.9,0-1.5c0-0.5-0.1-1-0.2-1.5c-0.1-0.5-0.2-1-0.4-1.4
				c-0.2-0.5-0.5-0.9-0.8-1.3c-0.4-0.4-0.9-0.7-1.5-1c-0.6-0.2-1.1-0.3-1.7-0.3c-0.6,0-1.2,0.1-1.7,0.3c-0.6,0.2-1,0.5-1.5,1
				c-0.4,0.4-0.6,0.8-0.8,1.3c-0.2,0.5-0.3,0.9-0.4,1.4c-0.1,0.5-0.2,1-0.2,1.5c0,0.5,0,1,0,1.5c0,0.5,0,0.9,0,1.5
				c0,0.5,0.1,1,0.2,1.5c0.1,0.5,0.2,1,0.4,1.5c0.2,0.5,0.5,0.9,0.8,1.2c0.4,0.4,0.9,0.8,1.5,1c0.6,0.2,1.1,0.3,1.7,0.3
				c0.6,0,1.2-0.1,1.7-0.3c0.5-0.2,1-0.5,1.5-1c0.4-0.4,0.6-0.8,0.8-1.2c0.2-0.5,0.3-1,0.4-1.5c0.1-0.5,0.2-1,0.2-1.5
				C190.3,251.4,190.3,250.9,190.3,250.4z"/>
			<path class="st0" d="M196.3,259.1v-17.4h2.3v17.4H196.3z"/>
			<path class="st0" d="M208.7,243.8v15.4h-2.2v-15.4h-5.2v-2.1h12.6v2.1H208.7z"/>
		</g>
	</g>
	<g>
		<path class="st1" d="M187.2,121h24V45.3h-24V121z M155.6,45.5c-8.8,0-18.6,4.7-23,12.1h-0.3l0-9.7c0,0,0,0,0,0c0,0,0,0,0-0.1
			c0-0.1,0-0.2,0-0.3c0-0.8,0-1.5,0-2.4h-24v41.7c0,13-7.9,16.4-13.1,16.4c-7.6,0-11.9-3.4-11.9-13.1V45.3h-24v46.5
			c0,19.2,6.1,31.4,27.1,31.4c8.5,0,17.8-4.7,22.3-12.1h0.3v10h24V81c0-8.1,4-15.7,13-15.7c13.1,0,12,10.2,12,20.2V121h24v-47
			C182.1,63.3,180.1,45.5,155.6,45.5z M132.4,48c0,7.7,0,9.7,0,9.7S132.4,57.7,132.4,48z M187.2,16v24h24V16H187.2z"/>
		<path class="st2" d="M285.3,76.7h29.8c-0.4-8.2-6.2-15-14.3-15C292.4,61.8,286.7,67.8,285.3,76.7z M339.1,84.6v5.4l0,0.2h-53.8
			c0.4,10,6.2,16.7,16.4,16.7c5.8,0,11.4-2.7,13.7-8.1h22.5c-4.4,17-20.1,24.3-36.4,24.3c-16.7,0-29.7-7-35.9-19.7V121h-24V85.5
			c0-10,1.1-20.2-12-20.2c-8.1,0-12.2,6.2-12.9,13.3V56.8c4.6-7,14.1-11.3,22.5-11.3c19.7,0,24.8,11.6,26,21.6
			c6.4-13.2,20.1-21.6,35.7-21.6C325.1,45.5,338.2,62.4,339.1,84.6z"/>
	</g>
	<path class="st1" d="M130.8,160.1c0.8-0.3,1.5-0.8,2-1.6c0.5-0.7,0.8-1.6,0.8-2.7c0-0.6-0.1-1.2-0.3-1.8c-0.2-0.6-0.5-1.1-1-1.5
		c-0.4-0.4-1-0.8-1.6-1c-0.7-0.3-1.4-0.4-2.3-0.4h-6.4v15.2h2.8v-5.7h3.4l2.5,5.7h3L130.8,160.1z M130.1,157.5
		c-0.4,0.4-1,0.6-1.8,0.6h-3.7v-4.5h3.6c0.4,0,0.7,0.1,1,0.2c0.3,0.1,0.6,0.3,0.8,0.5c0.2,0.2,0.4,0.5,0.5,0.7
		c0.1,0.3,0.2,0.6,0.2,0.9C130.8,156.6,130.6,157.1,130.1,157.5z M61.6,166.2c0.7,0.3,1.6,0.5,2.6,0.5c1,0,1.8-0.2,2.6-0.5
		c0.7-0.3,1.4-0.7,1.9-1.3c0.5-0.5,0.9-1.2,1.1-1.9c0.2-0.7,0.4-1.6,0.4-2.5v-9.4h-2.8v9.3c0,1.1-0.3,2-0.8,2.6
		c-0.5,0.7-1.3,1-2.4,1c-1.1,0-1.9-0.3-2.4-1c-0.5-0.7-0.8-1.5-0.8-2.6v-9.3h-2.8v9.4c0,0.9,0.1,1.7,0.4,2.5
		c0.2,0.8,0.6,1.4,1.1,1.9C60.3,165.4,60.9,165.9,61.6,166.2z M85.5,166.3v-15.2h-2.7v10.3l-6.5-10.3h-2.9v15.2H76v-10.4l6.6,10.4
		H85.5z M91.8,151.1H89v15.2h2.8V151.1z M101.7,166.3l5-15.2h-2.8l-3.7,11.6l-3.7-11.6h-2.9l5,15.2H101.7z M119.2,163.8h-8.1v-4.2
		h7.1v-2.5h-7.1v-3.5h8.1v-2.5h-10.8v15.2h10.8V163.8z M175.8,147.6l-1.2-1.9l-3.9,3l0.9,1.4L175.8,147.6z M152.3,151.1h-2.8v15.2
		h2.8V151.1z M211.3,153.7v-2.5h-10.8v15.2h10.8v-2.5h-8.1v-4.2h7.1v-2.5h-7.1v-3.5H211.3z M178.7,163.8h-8v-4.2h7.1v-2.5h-7.1v-3.5
		h8v-2.5h-10.8v15.2h10.8V163.8z M197.5,155.6c-0.1-0.5-0.3-1-0.5-1.5c-0.2-0.5-0.5-0.9-0.9-1.3c-0.5-0.5-1.1-0.9-1.9-1.2
		c-0.7-0.3-1.5-0.4-2.4-0.4h-5.9v15.2h5.9c0.9,0,1.7-0.1,2.4-0.4c0.7-0.3,1.4-0.7,1.9-1.2c0.4-0.4,0.7-0.8,0.9-1.3
		c0.2-0.5,0.4-1,0.5-1.5c0.1-0.5,0.2-1,0.2-1.6c0-0.5,0.1-1.1,0.1-1.6c0-0.5,0-1.1-0.1-1.6C197.7,156.6,197.6,156.1,197.5,155.6z
		 M194.9,159.8c0,0.4-0.1,0.8-0.1,1.2c-0.1,0.4-0.2,0.7-0.3,1.1c-0.1,0.3-0.4,0.6-0.6,0.9c-0.3,0.3-0.6,0.5-0.9,0.6
		c-0.4,0.2-0.8,0.2-1.2,0.2h-3.1v-10.2h3.1c0.4,0,0.8,0.1,1.2,0.2c0.4,0.2,0.7,0.4,0.9,0.6c0.3,0.3,0.5,0.6,0.6,0.9
		c0.1,0.3,0.2,0.7,0.3,1.1c0.1,0.4,0.1,0.8,0.1,1.1c0,0.4,0,0.7,0,1.1C195,159.1,194.9,159.4,194.9,159.8z M158.7,166.3h2.8v-12.6
		h4.5v-2.6h-11.8v2.6h4.5V166.3z M145.8,158.8c-0.4-0.4-0.8-0.7-1.3-0.9c-0.5-0.2-1-0.4-1.6-0.5c-0.5-0.1-1.1-0.1-1.7-0.2
		c-0.6-0.1-1.2-0.1-1.6-0.2c-0.5-0.1-0.8-0.2-1.1-0.5c-0.3-0.3-0.4-0.6-0.4-1.1c0-0.3,0-0.5,0.1-0.7c0.1-0.2,0.2-0.4,0.4-0.6
		c0.3-0.3,0.7-0.6,1.2-0.7c0.4-0.1,0.9-0.2,1.3-0.2c0.4,0,0.8,0.1,1.3,0.2c0.4,0.1,0.8,0.3,1,0.6c0.2,0.2,0.3,0.4,0.5,0.7
		c0.1,0.3,0.2,0.5,0.2,0.8h2.8c0-0.6-0.2-1.2-0.4-1.8c-0.3-0.5-0.6-1-1.1-1.5c-0.5-0.5-1.1-0.9-1.9-1.1c-0.7-0.2-1.5-0.4-2.3-0.4
		c-0.9,0-1.7,0.1-2.5,0.4c-0.8,0.3-1.4,0.7-1.9,1.2c-0.4,0.4-0.7,0.9-1,1.4c-0.2,0.5-0.4,1-0.4,1.6c0,0.6,0.1,1.2,0.3,1.7
		c0.2,0.5,0.5,0.9,0.8,1.3c0.4,0.3,0.8,0.6,1.2,0.8c0.5,0.2,1,0.4,1.5,0.5c0.5,0.1,1.1,0.1,1.7,0.2c0.6,0,1.2,0.1,1.7,0.2
		c0.5,0.1,0.9,0.3,1.3,0.5c0.4,0.3,0.5,0.7,0.5,1.3c0,0.4-0.1,0.7-0.2,0.9c-0.1,0.2-0.3,0.4-0.4,0.6c-0.3,0.3-0.7,0.5-1.1,0.6
		c-0.5,0.1-1,0.2-1.5,0.2c-0.4,0-0.9-0.1-1.4-0.2c-0.5-0.1-0.9-0.3-1.2-0.7c-0.2-0.2-0.4-0.5-0.6-0.8c-0.2-0.3-0.2-0.7-0.2-1h-2.8
		c0,0.7,0.1,1.4,0.4,2c0.3,0.6,0.7,1.1,1.1,1.5c0.6,0.6,1.3,1,2.1,1.2c0.8,0.2,1.6,0.4,2.4,0.4c0.9,0,1.8-0.1,2.7-0.4
		c0.8-0.2,1.5-0.7,2.1-1.3c0.4-0.4,0.7-0.8,0.9-1.3c0.2-0.5,0.4-1.1,0.4-1.8c0-0.6-0.1-1.2-0.3-1.7
		C146.5,159.6,146.2,159.1,145.8,158.8z M70.9,188.4l-8.2-13H59v19.2h3.4v-13.2l8.3,13.2h3.6v-19.2h-3.4V188.4z M152.3,173.1
		l1.1,1.5l3.9-2.3l3.9,2.3l1.1-1.5l-5-3.7L152.3,173.1z M155.3,176l-6.5,18.6h3.5l1.2-3.7h7.6l1.2,3.7h3.6l-6.5-18.6H155.3z
		 M154.6,187.8l2.7-8.1l2.7,8.1H154.6z M181.8,194.6h13.6v-3.2h-10.2v-5.2h8.9V183h-8.9v-4.4h10.2v-3.2h-13.6V194.6z M164.4,178.7
		h5.7v15.9h3.5v-15.9h5.7v-3.2h-14.8V178.7z M202.3,175.4h-3.5v19.2h12.4v-3.3h-8.9V175.4z M117.1,182.1c0.1-0.5,0.2-1,0.4-1.4
		c0.2-0.4,0.4-0.8,0.8-1.2c0.4-0.4,0.8-0.7,1.3-0.9c0.5-0.2,1-0.3,1.6-0.3c0.6,0,1.1,0.1,1.7,0.3c0.5,0.2,0.9,0.5,1.2,0.9
		c0.3,0.3,0.5,0.6,0.6,0.9c0.1,0.3,0.2,0.7,0.3,1.1h3.6c-0.1-0.8-0.3-1.5-0.6-2.2c-0.3-0.7-0.7-1.4-1.3-1.9
		c-0.7-0.7-1.6-1.3-2.5-1.7c-1-0.4-1.9-0.6-3-0.6c-1,0-2,0.2-2.9,0.5c-0.9,0.3-1.8,0.9-2.5,1.6c-0.5,0.5-0.9,1.1-1.3,1.7
		c-0.3,0.6-0.6,1.2-0.7,1.8c-0.2,0.6-0.3,1.3-0.3,2.1c-0.1,0.7-0.1,1.5-0.1,2.2c0,0.8,0,1.5,0.1,2.3s0.2,1.4,0.3,2
		c0.2,0.7,0.4,1.3,0.7,1.8c0.3,0.6,0.7,1.1,1.3,1.6c0.7,0.7,1.6,1.3,2.5,1.6c0.9,0.3,1.9,0.5,2.9,0.5c1,0,2-0.2,3-0.6
		c1-0.4,1.8-0.9,2.5-1.7c0.6-0.6,1-1.2,1.3-2c0.3-0.7,0.5-1.5,0.6-2.2h-3.6c-0.1,0.8-0.4,1.5-0.9,2.1c-0.3,0.4-0.7,0.7-1.2,0.9
		c-0.5,0.2-1.1,0.3-1.7,0.3c-0.6,0-1.1-0.1-1.6-0.3c-0.5-0.2-1-0.5-1.3-0.9c-0.3-0.3-0.6-0.7-0.8-1.2s-0.3-0.9-0.4-1.4
		c-0.1-0.5-0.1-1-0.1-1.5c0-0.5,0-1,0-1.4c0-0.4,0-0.9,0-1.4C116.9,183.1,117,182.6,117.1,182.1z M142.9,182.9h-7.9v-7.5h-3.5v19.2
		h3.5v-8.3h7.9v8.3h3.5v-19.2h-3.5V182.9z M107,187.2c0,1.4-0.3,2.5-1,3.3c-0.6,0.8-1.7,1.3-3.1,1.3c-1.4,0-2.4-0.4-3.1-1.3
		c-0.6-0.8-1-2-1-3.3v-11.8h-3.5v11.8c0,1.1,0.2,2.2,0.5,3.1c0.3,0.9,0.8,1.8,1.4,2.4c0.6,0.7,1.4,1.2,2.4,1.6
		c0.9,0.4,2,0.6,3.3,0.6c1.2,0,2.3-0.2,3.3-0.6c0.9-0.4,1.7-0.9,2.4-1.6c0.6-0.7,1.1-1.5,1.4-2.4c0.3-0.9,0.5-2,0.5-3.1v-11.8H107
		V187.2z M78.9,194.6h13.6v-3.2H82.4v-5.2h8.9V183h-8.9v-4.4h10.2v-3.2H78.9V194.6z"/>
</g>
</svg>
